_________________________  Visit us at _________________________
  
http://p2pdl.com  ____________________________  http://p2pdl.com


Safe Haven 2013 BRRip 720p x264 AAC - PRiSTiNE [P2PDL]

Genre: Drama | Mystery | Romance | Thriller
Plot: A young woman with a mysterious past lands 
in Southport, North Carolina where her bond with 
a widower forces her to confront the dark 
secret that haunts her.
Director: Lasse Hallström
Stars: Julianne Hough, David Lyons, Josh Duhamelthematic elements
Rated: Rated PG-13 for thematic material involving threatening behavior, and for violence and sexuality

Info: 
http://www.imdb.com/title/tt1702439/

General
Complete name                  : Safe Haven 2013 BRRip 720p x264 AAC - PRiSTiNE.mp4
Format                         : MPEG-4
File size                      : 729 MiB
Duration                       : 1h 55mn
Overall bit rate mode          : Variable
Overall bit rate               : 882 Kbps

Video
Format                         : AVC
Format profile                 : High 10@L4.1
Bit rate                       : 799 Kbps
Width                          : 1 280 pixels
Height                         : 536 pixels
Display aspect ratio           : 2.40:1
Frame rate mode                : Constant
Frame rate                     : 23.976 fps
Bit depth                      : 10 bits
Scan type                      : Progressive
Bits/(Pixel*Frame)             : 0.049
Stream size                    : 660 MiB (91%)
Writing library                : x264 core 130 r2273 b3065e6

Audio
Format                         : AAC
Format/Info                    : Advanced Audio Codec
Bit rate mode                  : Variable
Bit rate                       : 80.0 Kbps
Channel(s)                     : 2 channels
Channel positions              : Front: L R
Sampling rate                  : 48.0 KHz / 24.0 KHz
Stream size                    : 66.1 MiB (9%)
Language                       : English

Subtitle                       : Yes (English)
Source                         : 720p.BluRay.x264-SPARKS (Thanks)

Screenshots:
 
http://www.ultraimg.com/images/D29G.jpg 
http://www.ultraimg.com/images/OdQFB.jpg 
http://www.ultraimg.com/images/ubIpn.jpg 
http://www.ultraimg.com/images/d609M.jpg 
http://www.ultraimg.com/images/GziV3.jpg 
http://www.ultraimg.com/images/ARFS.jpg

----------------------------------------------------------------------------------------------------


Encoded using revolutionary 10bit encoding, which enables us to provide you more crispier 
and sharper images at small sizes, just make sure you follow our instructions without a fault.
Recommend to you to use latest version of VLC player. Install K-Lite Codec Pack or shark007 codecs
in case of any kind of problem in playback (For non-VLC Media Player users). Alternatively, install
Core AVC codecs, the fastest decoder that there is coupled with Community Center Codec Pack and play
on Windows Media Player Classic. Check sample to be sure.
Enjoy!

Encoder Notes:Looking For Early Access To Anything You Can Provide DVDScr, R5, DVDR, BluRay, Direct
Audio, Music Releases and Seedboxes. We require dedicated servers, so as to do more 
and fast releases of movies.
If You Got anything to offer please contact us at "prg@hush.com".

Face book Fan Page:   
http://www.fb.me/p2pdl